<svg width="200" height="29" viewBox="0 0 200 29" fill="none" xmlns="http://www.w3.org/2000/svg">
<g clip-path="url(#clip0_103_200)">
<path d="M39.1853 26.1607H37.1363C35.5229 26.1607 34.7773 25.2447 34.7773 23.7789V22.6429C31.5487 22.216 29.4997 19.5594 29.4997 14.977C29.4997 9.94583 31.9632 7.24701 35.7301 7.24701C39.497 7.24701 41.9587 9.94583 41.9587 14.977C41.9587 19.4311 40.0354 22.0658 36.9716 22.6008V24.1417H39.1393L39.1853 26.1607ZM39.4545 16.1606V13.8099C39.4545 11.091 37.9651 9.41266 35.7354 9.41266C33.5057 9.41266 32.0163 11.0836 32.0163 13.8099V16.1606C32.0163 18.8796 33.5057 20.5579 35.7354 20.5579C37.9651 20.5579 39.4545 18.8796 39.4545 16.1606Z" fill="#010101"/>
<path d="M43.6217 8.5442V8.17776C43.6217 7.47053 44.0361 6.95752 44.9677 6.95752C45.8992 6.95752 46.2924 7.47053 46.2924 8.17776V8.5442C46.2924 9.24959 45.8992 9.76444 44.9677 9.76444C44.0361 9.76444 43.6217 9.24959 43.6217 8.5442Z" fill="#010101"/>
<path d="M46.0852 11.3218H43.8289V22.4561H46.0852V11.3218Z" fill="#010101"/>
<path d="M47.9678 20.6147L49.4111 19.2442C50.1975 20.2299 51.1698 20.8291 52.4537 20.8291C53.7377 20.8291 54.4196 20.2794 54.4196 19.3303C54.4196 18.6231 54.0051 18.0881 52.8876 17.9379L51.8941 17.8096C49.6998 17.5311 48.3521 16.5454 48.3521 14.4897C48.3521 12.3277 49.9867 11.0635 52.3457 11.0635C54.2938 11.0635 55.3883 11.7286 56.3624 12.8407L54.9757 14.2112C54.653 13.8148 54.2504 13.4964 53.796 13.2783C53.3416 13.0602 52.8466 12.9477 52.3457 12.9488C51.106 12.9488 50.5251 13.4985 50.5251 14.3394C50.5251 15.1804 51.0422 15.5817 52.181 15.7759L53.1745 15.9041C55.5335 16.2706 56.589 17.3387 56.589 19.1361C56.589 21.278 54.9137 22.7126 52.3262 22.7126C50.3055 22.7126 48.9808 21.9211 47.9678 20.6147Z" fill="#010101"/>
<path d="M58.128 6.60944H60.3914V16.3311H60.4941L61.9853 14.3395L64.5727 11.3218H67.2009L63.4269 15.6257L67.6525 22.4561H64.9588L61.8737 17.1427L60.3914 18.8155V22.4561H58.128V6.60944Z" fill="#010101"/>
<path d="M69.2181 8.5442V8.17776C69.2181 7.47053 69.6325 6.95752 70.5641 6.95752C71.4956 6.95752 71.887 7.47053 71.887 8.17776V8.5442C71.887 9.24959 71.4938 9.76444 70.5641 9.76444C69.6343 9.76444 69.2181 9.24959 69.2181 8.5442Z" fill="#010101"/>
<path d="M71.6816 11.3218H69.4253V22.4561H71.6816V11.3218Z" fill="#010101"/>
<path d="M77.6198 22.4561C76.0666 22.4561 75.2395 21.5565 75.2395 20.0358V13.2273H73.5624V11.3218H74.4745C75.2183 11.3218 75.4662 10.9994 75.4662 10.2225V8.2804H77.4958V11.3218H79.7521V13.2273H77.4958V20.5561H79.5856V22.4616L77.6198 22.4561Z" fill="#010101"/>
<path d="M23.225 21.8972C23.2002 19.5246 17.8181 18.1852 12.7513 18.1266C7.37625 18.1266 1.81528 19.5337 1.79757 21.8899V21.9046C1.81883 24.2718 7.20446 25.6093 12.2713 25.6679C17.6463 25.6679 23.2073 24.2608 23.225 21.9046V21.8972ZM12.2695 24.8031C6.60232 24.7371 2.64766 23.2219 2.63349 21.8991C2.65651 20.5249 6.97069 18.9932 12.7513 18.9932C18.4185 19.0592 22.3732 20.5744 22.3873 21.8972C22.3714 23.2696 18.0483 24.8031 12.2695 24.8031Z" fill="url(#paint0_radial_103_200)"/>
<path d="M12.5334 28.713C10.3385 28.7199 8.18119 28.1239 6.2819 26.9857C4.38261 25.8475 2.80945 24.2081 1.72321 22.2349C0.636957 20.2617 0.0765614 18.0256 0.099286 15.755C0.122011 13.4843 0.727041 11.2607 1.85255 9.31117C2.97805 7.36168 4.58368 5.75629 6.50534 4.65905C8.42701 3.56181 10.5958 3.01207 12.7901 3.066C14.9844 3.11992 17.1255 3.77559 18.9947 4.966C20.8638 6.1564 22.3939 7.83886 23.4287 9.84144V9.84144C24.4396 11.7923 24.9449 13.9807 24.8953 16.1936C24.8458 18.4065 24.2431 20.5684 23.146 22.4687C22.0489 24.3691 20.4947 25.943 18.6349 27.0373C16.7751 28.1316 14.673 28.7089 12.5334 28.713ZM12.4945 3.94544C9.96864 3.95097 7.51422 4.81303 5.50721 6.39954C3.5002 7.98606 2.05129 10.2095 1.38245 12.7293C0.713598 15.2492 0.861701 17.9263 1.80407 20.3507C2.74643 22.7752 4.43109 24.8131 6.59995 26.1524C8.76881 27.4916 11.3023 28.0584 13.8122 27.7657C16.3222 27.4731 18.6702 26.3373 20.4965 24.5322C22.3229 22.7271 23.5268 20.3524 23.924 17.7718C24.3212 15.1913 23.8896 12.5471 22.6955 10.2445V10.2445C21.7049 8.33818 20.233 6.74555 18.4366 5.63628C16.6401 4.527 14.5865 3.94264 12.4945 3.94544V3.94544Z" fill="#010101"/>
<path d="M15.7071 26.9889C15.6947 26.0087 14.3257 25.2685 12.5193 25.2685C10.7128 25.2685 9.33144 26.0014 9.33144 26.9889V27.0017C9.34384 27.982 10.7128 28.7222 12.5193 28.7222C14.3257 28.7222 15.7071 27.9893 15.7071 27.0017V26.9889ZM12.5193 27.905C11.0865 27.905 10.1727 27.37 10.162 26.9889C10.1514 26.6078 11.0865 26.0728 12.5193 26.0728C13.952 26.0728 14.8641 26.6097 14.8747 26.9889C14.8853 27.3682 13.9449 27.8977 12.5139 27.8977L12.5193 27.905Z" fill="url(#paint1_radial_103_200)"/>
<path d="M24.9039 15.9005C24.8685 13.3629 18.6487 11.9154 12.7973 11.8531C6.59878 11.8531 0.15762 13.3739 0.1222 15.9005C0.1222 15.9005 0.1222 15.9005 0.1222 15.9115C0.15762 18.449 6.37563 19.8965 12.2288 19.9588C18.4273 19.9588 24.8685 18.4381 24.9039 15.9115C24.9039 15.9115 24.9039 15.9041 24.9039 15.9005ZM12.2324 19.0921C5.60524 19.0207 0.98291 17.3552 0.959887 15.9023C0.98291 14.3944 6.03737 12.7106 12.7938 12.7106C19.4209 12.7821 24.0432 14.4475 24.0662 15.9005C24.0432 17.4084 18.9888 19.0921 12.2324 19.0921Z" fill="url(#paint2_radial_103_200)"/>
<path d="M12.7513 6.09277C7.37448 6.09277 1.81351 7.5054 1.81351 9.86526C1.81351 12.2251 7.19561 13.581 12.2625 13.6396C17.6392 13.6396 23.2002 12.227 23.2002 9.86526C23.2002 7.50356 17.8252 6.1514 12.7513 6.09277ZM12.2749 12.773C6.60763 12.7107 2.65651 11.1881 2.65651 9.86526C2.65651 8.49661 6.97778 6.9594 12.7513 6.9594C18.4185 7.02536 22.3661 8.54425 22.3661 9.86526C22.3696 11.2449 18.0501 12.773 12.2749 12.773Z" fill="url(#paint3_radial_103_200)"/>
<path d="M12.4714 3.06781C11.57 3.06781 9.4749 3.20889 9.4749 4.51341C9.4749 5.81793 11.57 5.95901 12.4714 5.95901C13.3729 5.95901 15.468 5.81793 15.468 4.51341C15.468 3.20889 13.3729 3.06781 12.4714 3.06781ZM12.4714 3.94543C13.7377 3.94543 14.6197 4.24591 14.6197 4.51341C14.6197 4.78091 13.7342 5.08139 12.4714 5.08139C11.2087 5.08139 10.3232 4.78274 10.3232 4.51341C10.3232 4.24408 11.2052 3.94543 12.4714 3.94543Z" fill="black"/>
<path d="M17.7101 23.669C17.6591 23.6696 17.6082 23.6738 17.5578 23.6818V23.6818L12.8983 15.3582L8.65669 7.77472C8.80781 7.5793 8.88995 7.33639 8.88955 7.08614C8.88915 6.83588 8.80622 6.59326 8.65448 6.39837C8.50274 6.20347 8.29126 6.06797 8.055 6.01426C7.81874 5.96056 7.57183 5.99185 7.35509 6.10298C7.13835 6.2141 6.96475 6.39841 6.86297 6.62544C6.76119 6.85247 6.73734 7.10862 6.79534 7.35158C6.85335 7.59453 6.98975 7.80974 7.18199 7.96163C7.37424 8.11353 7.61082 8.19301 7.85265 8.18696C7.89953 8.18498 7.94625 8.18009 7.99256 8.1723L12.2341 15.7558L14.1504 19.1838L16.8848 24.0702C16.7315 24.2632 16.6463 24.5044 16.6432 24.7542C16.6401 25.0039 16.7193 25.2473 16.8677 25.4443C17.0162 25.6413 17.2251 25.7801 17.46 25.8378C17.6949 25.8956 17.9418 25.8689 18.16 25.7621C18.3783 25.6553 18.5549 25.4748 18.6607 25.2503C18.7666 25.0258 18.7954 24.7707 18.7424 24.527C18.6894 24.2833 18.5577 24.0655 18.3691 23.9096C18.1805 23.7536 17.9462 23.6688 17.7048 23.669H17.7101Z" fill="url(#paint4_radial_103_200)"/>
</g>
<line x1="93" y1="2" x2="93" y2="27" stroke="black" stroke-width="2"/>
<path d="M111.38 22H102.86V8.04H111.38V9.52H104.54V14.2H110.98V15.68H104.54V20.52H111.38V22ZM118.005 22.24C115.105 22.24 113.405 20.14 113.405 16.84C113.405 13.54 115.105 11.44 118.005 11.44C120.045 11.44 121.265 12.44 121.865 13.86L120.525 14.54C120.145 13.48 119.265 12.86 118.005 12.86C116.105 12.86 115.125 14.16 115.125 15.96V17.72C115.125 19.52 116.105 20.82 118.005 20.82C119.305 20.82 120.245 20.2 120.805 19.02L121.965 19.8C121.305 21.28 119.965 22.24 118.005 22.24ZM128.006 22.24C125.246 22.24 123.346 20.12 123.346 16.84C123.346 13.56 125.246 11.44 128.006 11.44C130.766 11.44 132.666 13.56 132.666 16.84C132.666 20.12 130.766 22.24 128.006 22.24ZM128.006 20.82C129.726 20.82 130.946 19.76 130.946 17.58V16.1C130.946 13.92 129.726 12.86 128.006 12.86C126.286 12.86 125.066 13.92 125.066 16.1V17.58C125.066 19.76 126.286 20.82 128.006 20.82ZM138.398 22.24C136.498 22.24 135.238 21.44 134.318 20.22L135.458 19.3C136.258 20.3 137.218 20.88 138.518 20.88C139.878 20.88 140.678 20.26 140.678 19.2C140.678 18.4 140.238 17.78 138.878 17.58L138.058 17.46C136.158 17.18 134.738 16.4 134.738 14.48C134.738 12.44 136.318 11.44 138.418 11.44C140.078 11.44 141.178 12.06 142.018 13.1L140.958 14.06C140.498 13.42 139.618 12.8 138.298 12.8C136.978 12.8 136.278 13.42 136.278 14.4C136.278 15.4 136.978 15.8 138.258 16L139.058 16.12C141.338 16.46 142.218 17.46 142.218 19.02C142.218 21.02 140.758 22.24 138.398 22.24ZM148.552 18.7L151.052 11.68H152.632L148.012 24.4C147.552 25.64 147.132 26 145.612 26H144.792V24.6H146.412L147.192 22.4L143.332 11.68H144.932L147.412 18.7L147.892 20.38H147.992L148.552 18.7ZM157.695 22.24C155.795 22.24 154.535 21.44 153.615 20.22L154.755 19.3C155.555 20.3 156.515 20.88 157.815 20.88C159.175 20.88 159.975 20.26 159.975 19.2C159.975 18.4 159.535 17.78 158.175 17.58L157.355 17.46C155.455 17.18 154.035 16.4 154.035 14.48C154.035 12.44 155.615 11.44 157.715 11.44C159.375 11.44 160.475 12.06 161.315 13.1L160.255 14.06C159.795 13.42 158.915 12.8 157.595 12.8C156.275 12.8 155.575 13.42 155.575 14.4C155.575 15.4 156.275 15.8 157.555 16L158.355 16.12C160.635 16.46 161.515 17.46 161.515 19.02C161.515 21.02 160.055 22.24 157.695 22.24ZM168.484 22H166.484C165.384 22 164.784 21.3 164.784 20.3V13.08H163.084V11.68H164.044C164.724 11.68 164.944 11.44 164.944 10.74V8.82H166.384V11.68H168.644V13.08H166.384V20.6H168.484V22ZM175.018 22.24C172.218 22.24 170.378 20.12 170.378 16.84C170.378 13.56 172.218 11.44 175.018 11.44C177.778 11.44 179.478 13.56 179.478 16.48V17.24H172.058V17.72C172.058 19.5 173.198 20.84 175.118 20.84C176.418 20.84 177.418 20.2 177.958 19.06L179.098 19.88C178.438 21.28 176.958 22.24 175.018 22.24ZM175.018 12.78C173.278 12.78 172.058 14.1 172.058 15.9V16.04H177.758V15.82C177.758 14 176.658 12.78 175.018 12.78ZM183.714 22H182.114V11.68H183.714V13.36H183.794C184.254 12.3 184.974 11.44 186.574 11.44C187.934 11.44 189.174 12.06 189.734 13.54H189.774C190.154 12.42 191.154 11.44 192.914 11.44C195.014 11.44 196.274 12.88 196.274 15.38V22H194.674V15.66C194.674 13.84 193.974 12.88 192.414 12.88C191.154 12.88 189.994 13.52 189.994 14.84V22H188.394V15.66C188.394 13.82 187.694 12.88 186.174 12.88C184.914 12.88 183.714 13.52 183.714 14.84V22Z" fill="black"/>
<defs>
<radialGradient id="paint0_radial_103_200" cx="0" cy="0" r="1" gradientUnits="userSpaceOnUse" gradientTransform="translate(16.6478 16.1861) rotate(12.7517) scale(11.3253 7.66997)">
<stop offset="0.16" stop-color="#010101" stop-opacity="0"/>
<stop offset="1" stop-color="#010101"/>
</radialGradient>
<radialGradient id="paint1_radial_103_200" cx="0" cy="0" r="1" gradientUnits="userSpaceOnUse" gradientTransform="translate(12.567 23.8474) scale(6.07803 3.84981)">
<stop stop-color="#010101" stop-opacity="0"/>
<stop offset="1" stop-color="#010101"/>
</radialGradient>
<radialGradient id="paint2_radial_103_200" cx="0" cy="0" r="1" gradientUnits="userSpaceOnUse" gradientTransform="translate(12.6256 8.84102) scale(10.4621 8.28335)">
<stop offset="0.2" stop-color="#010101" stop-opacity="0"/>
<stop offset="1" stop-color="#010101"/>
</radialGradient>
<radialGradient id="paint3_radial_103_200" cx="0" cy="0" r="1" gradientUnits="userSpaceOnUse" gradientTransform="translate(6.15139 3.39141) rotate(66.5185) scale(7.23242 10.0187)">
<stop offset="0.36" stop-color="#010101" stop-opacity="0"/>
<stop offset="1" stop-color="#010101"/>
</radialGradient>
<radialGradient id="paint4_radial_103_200" cx="0" cy="0" r="1" gradientUnits="userSpaceOnUse" gradientTransform="translate(-65.9476 -212.607) scale(185.524 191.934)">
<stop stop-color="#010101" stop-opacity="0"/>
<stop offset="0.37" stop-color="#010101"/>
</radialGradient>
<clipPath id="clip0_103_200">
<rect width="80" height="25.8065" fill="white" transform="translate(0 3)"/>
</clipPath>
</defs>
</svg>
